#!OML:ASF F:\VICON\USERDATA\INSTALL\rory3\rory3.ASF
:FULLY-SPECIFIED
:DEGREES
68
root 1.0497563402086167 17.98101902359622 34.4983434191905 -3.3880504443403905 1.1798148123274508 -0.03830382365988205
lfemur 2.3924978459830903 -3.9129738391050948 -24.518447073991947
ltibia 28.12605494819855
lfoot -14.24666567123451 0.8457498770645984
ltoes -20.708319942195384
rfemur -16.020719280360773 0.5037222609624556 22.083127070268556
rtibia 28.607440573260966
rfoot 0.3089023104839459 -8.96575904408136
rtoes 2.885477459628586
lowerback 10.507835500876395 -0.7062029358155164 -1.6687585282205193
upperback -0.19637252699844052 -1.152884453471173 1.3832890030361478
thorax -5.897953861620488 -0.5176916261227944 2.966232232630274
lowerneck -16.432945232621112 -3.291743297988585 -1.6831153074646628
upperneck 21.90845715129577 -4.429338457985796 0.7017188917359822
head 9.801946656511504 -2.102957825281346 -0.055403896217366994
lclavicle -2.70030795181142e-15 -2.1517147062477693e-15
lhumerus -27.343432468684504 0.7510405231856105 81.82936692791183
lradius 25.050430919090665
lwrist 10.025199172955901
lhand -29.896180862100554 19.98467210848265
lfingers 7.125020000000001
lthumb -3.085438933570843 50.34057371951465
rclavicle -2.7003079517451298e-15 -2.1517147062020244e-15
rhumerus -35.891483159023096 -23.072468859128513 -75.51781711605112
rradius 25.38884184826634
rwrist 5.4630357647481524
rhand -17.978597731707307 22.52965190814261
rfingers 7.125020000000001
rthumb 8.131729016265798 -6.61771993632054
69
root 1.0609567579608665 17.959604310139284 35.53893133011751 -3.501815236051552 1.0812004524178556 0.334917448638373
lfemur 3.1775665948755876 -4.000011442859897 -24.92930887596975
ltibia 29.322087499699585
lfoot -12.655024321809456 -0.22818774238964012
ltoes -18.979597937470306
rfemur -17.499518566145085 0.22621008214611016 21.64629243793085
rtibia 28.506235533586434
rfoot -0.0672574822623151 -9.01772463845838
rtoes 2.2714097236157613
lowerback 10.591780200185324 -0.8439975169703553 -2.0591486769729612
upperback -0.15299607789788977 -1.402796274719856 1.3533119526445583
thorax -5.90158504952236 -0.6340003690225463 3.228434629385897
lowerneck -16.466215924059366 -3.2793943404377073 -1.7032635399574128
upperneck 21.812421488581464 -4.408659202417267 0.769320381157853
head 9.735653395333292 -2.097095305142377 -0.016242331764797807
lclavicle -2.7003079518067264e-15 -2.1517147062439267e-15
lhumerus -27.8670163133795 1.3603385093803255 81.98142897278244
lradius 23.92040651548809
lwrist 10.364307857134435
lhand -29.962377886260644 20.215983154316657
lfingers 7.125020000000001
lthumb -3.1885773951058582 50.53235457495155
rclavicle -2.7003079517547847e-15 -2.151714706207911e-15
rhumerus -35.636696249508375 -23.446026135735863 -75.3272113737598
rradius 25.391401908536267
rwrist 6.167352488999748
rhand -18.04510800036138 22.248559756699297
rfingers 7.125020000000001
rthumb 8.10290419709544 -6.814957183123909
70
root 1.0647139352929658 17.93265226500557 36.29280775222402 -3.6683602569381275 0.8450655745347346 0.6462278917585924
lfemur 3.9073677281470367 -4.003567736534172 -25.207901671003167
ltibia 30.70254730453364
lfoot -10.795600657337793 -1.1531008335346333
ltoes -17.38278537595631
rfemur -18.905199176434387 0.105970987869211 21.374858144158246
rtibia 28.611861777343663
rfoot -0.3377525221136253 -8.939622562267811
rtoes 3.333985594028337
lowerback 10.676326588485722 -0.9470693062258604 -2.460919928435854
upperback -0.11959640421594789 -1.5968529600646224 1.3523231106677502
thorax -5.945060247161546 -0.7315974654822716 3.4145340067207046
lowerneck -16.481728636333052 -3.267584010267663 -1.7172906747743635
upperneck 21.73405978714703 -4.398048969617297 0.8352888631636769
head 9.689656646932152 -2.09613559661132 0.012311847475904358
lclavicle -2.700307951813439e-15 -2.1517147062477984e-15
lhumerus -28.493485687392813 1.8383461438835855 82.15353554079584
lradius 22.97549607894509
lwrist 10.654358732061247
lhand -30.059914508923587 20.509395721972908
lfingers 7.125020000000001
lthumb -3.3347763167282514 50.79913782127661
rclavicle -2.7003079517551404e-15 -2.151714706207551e-15
rhumerus -35.16631564621006 -23.627092269154055 -75.23190142008596
rradius 25.342593617581493
rwrist 6.45479228264383
rhand -17.993473078036292 22.19676638844461
rfingers 7.125020000000001
rthumb 8.192020758350846 -6.857820758499425
71
root 1.0656067548391528 17.902811333098082 36.99691651002641 -3.8525639806989544 0.5591329039448838 0.8037906408786313
lfemur 4.298078622908777 -3.8721559389433624 -25.163499776151674
ltibia 32.45357620766545
lfoot -8.817806127461873 -2.006521447173324
ltoes -16.415887228202344
rfemur -20.04899142234653 0.11233293862365468 21.354044944714268
rtibia 28.663740848193562
rfoot -0.6822517262324235 -8.81491160641472
rtoes 3.981324060741903
lowerback 10.772336338644031 -1.0244689385922667 -2.6946211217300906
upperback -0.04885633757036606 -1.8010879134483442 1.3420446575373646
thorax -5.9263782516591625 -0.8142135265638248 3.6355698171122737
lowerneck -16.575490427481327 -3.257159276362365 -1.717283774240719
upperneck 21.6726374598145 -4.376142583068856 0.8779772890105236
head 9.667163806434301 -2.0861400089464377 0.029900220156807072
lclavicle -2.700307951814392e-15 -2.1517147062479053e-15
lhumerus -29.026647089830544 2.373541137475324 82.42351228249956
lradius 22.29173236344262
lwrist 10.907794142042746
lhand -30.194146207332302 20.70416639855529
lfingers 7.125020000000001
lthumb -3.5099194123507074 51.009659148701914
rclavicle -2.7003079517581263e-15 -2.1517147062090074e-15
rhumerus -34.853042958012786 -23.78684132126316 -75.04599810376719
rradius 25.305254351134995
rwrist 6.63762245933774
rhand -18.005949237058427 22.039767838759346
rfingers 7.125020000000001
rthumb 8.1255409897628 -7.151188205013482
72
root 1.060248564231774 17.86669879727435 37.592943301734806 -4.095138728839036 0.19802536945212595 0.9842268667859639
lfemur 4.742911187513803 -3.6597552981952832 -25.069760950026794
ltibia 34.3022977441069
lfoot -6.760272324759154 -2.7295481511041952
ltoes -12.253967354640665
rfemur -21.05785772432439 0.2270163510847243 21.35841490036872
rtibia 28.987658672598528
rfoot -1.1133697078133622 -8.65685879297966
rtoes 5.191115687851454
lowerback 10.874347652676686 -1.0621128777287328 -2.9553994834810995
upperback -0.01212059612714371 -1.8755081150895483 1.3510567342071802
thorax -5.946384119593548 -0.831415910165775 3.757727551367989
lowerneck -16.629765418577175 -3.2420237907681897 -1.7148747085360017
upperneck 21.57048561290057 -4.352422592279821 0.9397825491305354
head 9.618531279545518 -2.078451272991356 0.05302103006960404
lclavicle -2.700307951815182e-15 -2.15171470624792e-15
lhumerus -29.690278256320152 2.7535953425357445 82.64817586122805
lradius 21.80807546050379
lwrist 10.974786550428721
lhand -30.237908354392342 20.6500429337144
lfingers 7.125020000000001
lthumb -3.63388190827833 50.85651821386028
rclavicle -2.7003079517622556e-15 -2.1517147062113215e-15
rhumerus -34.4702950029946 -23.84536272545325 -74.94940437737432
rradius 25.288589649115938
rwrist 6.741292997161561
rhand -18.041440255677188 21.84214212919646
rfingers 7.125020000000001
rthumb 8.153447581452687 -7.365797702565246
